<svg xmlns="http://www.w3.org/2000/svg" viewBox="0 0 29.4 27.38"><title>team-management</title><g id="Layer_2" data-name="Layer 2"><g id="Layer_2-2" data-name="Layer 2"><path d="M14.75,5.21c-3.45,0-3.36-5.4.11-5.2C18.14.19,18,5.21,14.75,5.21Zm-.06-.89h.25l.22,0,.2-.06A1.68,1.68,0,0,0,15.73,4h0a2.73,2.73,0,0,0,.35-.33,1.87,1.87,0,0,0,.33-.75,1.88,1.88,0,0,0,0-.58h0a2.42,2.42,0,0,0-.1-.36,2.82,2.82,0,0,0-.21-.38L16,1.5a2.85,2.85,0,0,0-.25-.25A2,2,0,0,0,15.4,1,1.7,1.7,0,0,0,14.81.9h-.27l-.06.22,0-.22a1.78,1.78,0,0,0-.54.17,2.26,2.26,0,0,0-.26.16,1.38,1.38,0,0,0-.3.29l.11.2-.13-.18a1.83,1.83,0,0,0-.23.38,2,2,0,0,0-.12.42,2,2,0,0,0,0,.49,2,2,0,0,0,.11.42,2.64,2.64,0,0,0,.2.37l.08.09a2.21,2.21,0,0,0,.26.24,1.8,1.8,0,0,0,.35.21l.05,0h0A1.38,1.38,0,0,0,14.69,4.32Z"/><path d="M11.73,10.05c-1.69,0-1.49-2.32-1.32-3.49a3.07,3.07,0,0,1,1.18-2c.69-.48,1.28.31.57.7a2.6,2.6,0,0,0-.38.36l.12.1v.1l-.14-.16a2.28,2.28,0,0,0-.44,1l0,.2c0,.65,0,1.3,0,1.94l0,.13h0l0,0h0l.09.11.08,0,0-.11.1-.08,0,.21.13,0h6.08l.13,0,.08,0h0l.05,0L18.08,9l0,0h0l0-.07,0-.12a20,20,0,0,0,0-2h0A4.74,4.74,0,0,0,18,6.15a3.17,3.17,0,0,0-.27-.47l-.14.1.09-.17c-.18-.22-.68-.49-.74-.77-.12-.55.41-.6.77-.42a3.15,3.15,0,0,1,1.35,2.81c0,1.24.16,2.71-1.45,2.82C15.67,10.19,13.68,10.05,11.73,10.05Z"/><path d="M4.45,22.48c-3.46,0-3.36-5.41.11-5.21C7.84,17.45,7.7,22.48,4.45,22.48Zm0-.9h.24a2.17,2.17,0,0,0,.42-.11,2,2,0,0,0,.72-.54,1.7,1.7,0,0,0,.33-1.33h0a2.42,2.42,0,0,0-.1-.36,2.82,2.82,0,0,0-.21-.38l-.08-.09a2.85,2.85,0,0,0-.25-.25,2,2,0,0,0-.37-.21,2,2,0,0,0-.42-.12l-.17,0H4.23l-.05.22,0-.22a1.7,1.7,0,0,0-.54.17,2.26,2.26,0,0,0-.26.16,2.13,2.13,0,0,0-.31.29l.12.2-.13-.18a2.14,2.14,0,0,0-.23.38,2,2,0,0,0-.12.42,2.68,2.68,0,0,0,0,.49,2.9,2.9,0,0,0,.12.42,2.08,2.08,0,0,0,.2.36l0,0v0h0l0,.05.25.25a2.38,2.38,0,0,0,.41.23h0a2.54,2.54,0,0,0,.37.1H4.4Z"/><path d="M1.43,27.31C-.26,27.31-.06,25,.11,23.82a3,3,0,0,1,1.18-2c.69-.48,1.28.32.57.7a2.22,2.22,0,0,0-.38.37l.12.09V23l-.14-.16a2.55,2.55,0,0,0-.3.5,4.28,4.28,0,0,0-.15.51l0,.21V26l0,.14H1l.12.15,0,0v0l.11,0H7.45l.14,0,.11-.05.08-.07,0-.05h0l0-.07,0-.12a20,20,0,0,0,0-2.05h0a2.73,2.73,0,0,0-.15-.56,2.42,2.42,0,0,0-.26-.47L7.3,23l.11-.14c-.18-.22-.7-.51-.76-.8-.14-.67.55-.57.89-.33a3.14,3.14,0,0,1,1.22,2.52c.06,1.26.23,2.9-1.42,3C5.39,27.46,3.38,27.31,1.43,27.31Z"/><path d="M25.05,22.48c-3.45,0-3.36-5.41.11-5.21C28.44,17.45,28.3,22.48,25.05,22.48Zm-.05-.9h.24a2.17,2.17,0,0,0,.42-.11l.2-.1.18-.11h0a3.51,3.51,0,0,0,.34-.33,1.88,1.88,0,0,0,.21-.36h0a2.78,2.78,0,0,0,.12-.38l-.17,0h.18l-.1,0,.1,0a1.6,1.6,0,0,0,0-.49h0a2.12,2.12,0,0,0-.1-.36,2.82,2.82,0,0,0-.21-.38l-.08-.1-.25-.24a2,2,0,0,0-.37-.21,2,2,0,0,0-.42-.12l-.17,0h-.27l-.06.22,0-.22a1.78,1.78,0,0,0-.54.17,2.26,2.26,0,0,0-.26.16,2.06,2.06,0,0,0-.3.29l.11.2-.13-.18a2.14,2.14,0,0,0-.23.38,1.67,1.67,0,0,0-.12.91,2,2,0,0,0,.11.42,1.75,1.75,0,0,0,.29.47l.25.24a2,2,0,0,0,.35.2l.05,0h0a2.09,2.09,0,0,0,.43.11H25Z"/><path d="M22,27.31c-1.69,0-1.49-2.32-1.32-3.49a3.07,3.07,0,0,1,1.18-2c.69-.48,1.28.32.57.7a2.65,2.65,0,0,0-.38.37l.12.09V23l-.14-.16a3.1,3.1,0,0,0-.29.5,2.29,2.29,0,0,0-.15.51l0,.21V26l0,.14h0l.11.15,0,0v0l.11,0h6.19l.14,0,.12-.05.07-.07,0-.05h0l0-.07,0-.12a20,20,0,0,0,0-2.05h0a5.12,5.12,0,0,0-.15-.56,4.31,4.31,0,0,0-.26-.47l-.15.1L28,22.9c-.19-.22-.71-.51-.77-.8-.14-.67.55-.56.9-.33a3.17,3.17,0,0,1,1.22,2.52c.05,1.26.22,2.9-1.43,3C26,27.46,24,27.31,22,27.31Z"/><path d="M14.74,17.46c-.79,0-.45-2.4-.45-2.84s-.33-2.85.45-2.83.45,2.29.45,2.74S15.53,17.46,14.74,17.46Z"/><path d="M10.6,19.84c-.78,0-.34-.73,0-1s.95-.55,1.42-.82l1.71-1c.24-.14.69-.53,1-.51.74.05.38.69,0,.94a13.26,13.26,0,0,1-1.37.8l-1.79,1c-.26.15-.68.51-1,.51Z"/><path d="M18.87,19.84c-.33,0-.74-.36-1-.51l-1.71-1c-.47-.27-1-.51-1.42-.82s-.76-.92,0-1c.29,0,.71.34.93.47l1.69,1c.5.28,1,.54,1.51.86S19.67,19.84,18.87,19.84Z"/></g></g></svg>