<svg xmlns="http://www.w3.org/2000/svg" viewBox="0 0 26.98 21.26"><defs><style>.cls-1{fill-rule:evenodd;}</style></defs><title>npm-audit</title><g id="Layer_2" data-name="Layer 2"><g id="Layer_2-2" data-name="Layer 2"><path d="M0,15.53V5.81a5.82,5.82,0,0,1,11.63-.08h3.81A5.77,5.77,0,1,1,27,5.81v9.72a5.77,5.77,0,0,1-11.54,0V11.89H11.63v3.64A5.82,5.82,0,0,1,0,15.53Zm16.74-.09A4.52,4.52,0,0,0,21.17,20a4.38,4.38,0,0,0,4.42-4.42,4.11,4.11,0,0,0-1.3-3.12,4.38,4.38,0,0,0-6.24,0,4.62,4.62,0,0,0-1.31,3Zm-15.35,0a4.43,4.43,0,1,0,8.85.09,4.15,4.15,0,0,0-1.3-3.12,4.39,4.39,0,0,0-6.25,0,4.25,4.25,0,0,0-1.3,3Z"/><path class="cls-1" d="M6.94,12.06c1.82.78,3.21,2.69,1.82,4.51Z"/><path class="cls-1" d="M22.56,12.06c1.82.78,3.21,2.69,1.82,4.51Z"/></g></g></svg>